<svg id="Layer_1" data-name="Layer 1" height="250" width="250" xmlns="http://www.w3.org/2000/svg" viewBox="0 0 380.51676 511.43612"><defs><style>.cls-1{fill:#bcbec0;opacity:0.75;}.cls-2{fill:#4f4f51;}.cls-3{fill:#393839;}</style></defs><path class="cls-1" d="M71.10565,8.01758l-.00074,503.70048,375.06405-.44871a10.37852,10.37852,0,0,0,4.57966-10.92573q-43.86617-86.95925-87.73236-173.91849a8.07324,8.07324,0,0,1-.07926-5.46919,7.9883,7.9883,0,0,1,2.79274-3.7478c56.938-35.04889,90.38889-97.03944,85.40264-159.83449C444.89046,78.76581,379.40224,11.32065,293.09145.49245L77.67586.28194A8.06194,8.06194,0,0,0,72.712,3.265,7.96867,7.96867,0,0,0,71.10565,8.01758Z" transform="translate(-71.10491 -0.28194)"/><path class="cls-2" d="M36.83928,77.56908H167.49095a92.80822,92.80822,0,0,1,92.80822,92.80822v.00019A92.80817,92.80817,0,0,1,167.491,263.18566H36.83928a8.31389,8.31389,0,0,1-8.31389-8.31389V85.883a8.31389,8.31389,0,0,1,8.31389-8.31389Z"/><path class="cls-3" d="M84.313,235.43113h93.8969a99.33619,99.33619,0,0,1,99.33619,99.33619v.0002a99.3362,99.3362,0,0,1-99.3362,99.3362H36.94892a8.89867,8.89867,0,0,1-8.89867-8.89867V291.69384A56.26271,56.26271,0,0,1,84.313,235.43113Z"/></svg>