<svg xmlns="http://www.w3.org/2000/svg" xmlns:xlink="http://www.w3.org/1999/xlink" viewBox="0 0 347.77326 219.85256"><defs><clipPath id="clip-path"><rect x="92.72069" y="146.38206" width="163.88941" height="18.092" style="fill:#f5d100"/></clipPath><clipPath id="clip-path-2"><path d="M102.94659,63.26116a5.39517,5.39517,0,1,0,7.1723-2.6025A5.39483,5.39483,0,0,0,102.94659,63.26116Z" style="fill:#eb8175"/></clipPath><clipPath id="clip-path-3"><path d="M205.29918,144.03126a5.45688,5.45688,0,1,0,7.6791-.76471A5.45677,5.45677,0,0,0,205.29918,144.03126Z" style="fill:#eb8175"/></clipPath><clipPath id="clip-path-4"><path d="M115.90079,216.26226l9.8728-25.51561a1.4275,1.4275,0,0,1,2.66251,0l9.87269,25.51561Z" style="fill:#f5d100"/></clipPath><clipPath id="clip-path-5"><path d="M259.258,216.341l9.8728-25.51551a1.42742,1.42742,0,0,1,2.6624,0L281.666,216.341Z" style="fill:#f5d100"/></clipPath></defs><g id="Layer_2" data-name="Layer 2"><g id="construction"><path d="M344.29888,156.88605a73.71884,73.71884,0,0,0,1.9246-37.26939c-4.17838-19.3194-17.6379-42.7079-56.4795-52.80041-73.5344-19.10679-99.06679-74.9828-167.85149-57.18869,0,0-36.9137,6.7079-54.3842,67.7888s-85.9249,62.1203-62.3551,115.30409c3.8524,8.69281,14.2252,18.175,29.1184,27.13211l278.94919-.93741C332.49788,195.73776,338.49768,175.68785,344.29888,156.88605Z" style="fill:#ebebff"/><path d="M278.47828,113.205h-10.4657V101.75605a12.11869,12.11869,0,0,0-9.3712-11.797V75.74956h-3.852v13.9396a12.11922,12.11922,0,0,0-11.0218,12.06689v11.7857H233.3561v13.1327h-.70072v24.4071l-18.9237-.13619v-29.1708H192.04839v21.378H176.835v20.7673h-18.3868v54.9719h61.08609v-.00789h13.1211v.00789H309.253V149.57046h-30.8016Z" style="fill:#d6d7f4"/><polygon points="62.518 143.419 62.518 116.091 72.762 116.091 72.762 101.475 76.614 101.475 76.614 116.091 86.052 116.091 86.052 143.419 96.642 143.419 96.642 159.791 113.517 159.791 113.517 104.019 148.75 104.019 148.75 218.892 125.791 218.892 115.9 218.892 91.013 218.892 79.518 218.892 49.486 218.892 49.486 143.419 62.518 143.419" style="fill:#d6d7f4"/><path d="M255.00378,218.614l-160.58209.1256a11.01256,11.01256,0,0,1-11.0212-11.0039h0l182.60709-.1427h0A11.01244,11.01244,0,0,1,255.00378,218.614Z" style="fill:#3d5ac4"/><path d="M255.00088,214.82255,94.41869,214.948a11.00563,11.00563,0,0,1-10.3337-7.2129l-.6845.00059a11.01256,11.01256,0,0,0,11.0212,11.0039l160.58209-.1256a11.01244,11.01244,0,0,0,11.0038-11.021l-.6842.0005A11.0065,11.0065,0,0,1,255.00088,214.82255Z" style="fill:#5571e9"/><path d="M185.08059,211.34276l-20.7472.0162a3.68665,3.68665,0,0,1-3.6894-3.6837h0l28.1202-.022h0A3.68653,3.68653,0,0,1,185.08059,211.34276Z" style="fill:#27429c"/><path d="M256.6101,207.60026l-163.812.1281-.07741-98.8751a10.27093,10.27093,0,0,1,10.2627-10.27881L246.254,98.46256a10.27082,10.27082,0,0,1,10.2789,10.26279Z" style="fill:#5571e9"/><rect x="101.28627" y="107.06049" width="146.75034" height="92.06178" style="fill:#312c76"/><rect x="101.31882" y="190.32175" width="146.75039" height="8.8005" style="fill:#151247"/><rect x="101.25202" y="107.0605" width="146.75035" height="4.36855" style="fill:#151247"/><polygon points="150.192 107.08 101.288 156.06 101.322 199.18 101.428 199.18 193.418 107.046 150.192 107.08" style="fill:#5571e9;opacity:0.16"/><polygon points="120.271 199.169 141.941 199.148 233.931 107.014 212.26 107.035 120.271 199.169" style="fill:#5571e9;opacity:0.16"/><polygon points="230.811 199.078 248.059 181.803 248.034 149.118 196.259 199.099 230.811 199.078" style="fill:#5571e9;opacity:0.16"/><rect x="92.72069" y="146.38206" width="163.88941" height="18.092" style="fill:#f5d100"/><g style="clip-path:url(#clip-path)"><polygon points="113.166 170.821 99.065 170.821 111.203 143.055 125.304 143.055 113.166 170.821" style="fill:#fff"/><polygon points="143.238 170.821 129.137 170.821 141.275 143.055 155.376 143.055 143.238 170.821" style="fill:#fff"/><polygon points="173.31 170.821 159.209 170.821 171.347 143.055 185.448 143.055 173.31 170.821" style="fill:#fff"/><polygon points="203.382 170.821 189.281 170.821 201.419 143.055 215.52 143.055 203.382 170.821" style="fill:#fff"/><polygon points="233.454 170.821 219.353 170.821 231.491 143.055 245.592 143.055 233.454 170.821" style="fill:#fff"/></g><path d="M79.56129,115.145l-3.2037.12279-1.8751-.5949a2.03708,2.03708,0,0,0-2.3056.804l-.2363.35081,9.3659,5.17339,1.8111-3.88489Z" style="fill:#14103d"/><path d="M81.30959,121.08246l-9.4396-5.214.3299-.5975a.24386.24386,0,0,1,.3314-.0954l9.2261,5.096-.4478.8109" style="fill:#14103d"/><polygon points="83.118 117.116 85.591 112.834 83.118 108.415 79.561 115.145 83.118 117.116" style="fill:#eb8175"/><path d="M102.50369,92.48516s-13.3474-3.82991-14.63259-.2262-9.072,19.548-9.072,19.548l5.81209,3.032,8.7171-15.1402,11.7294-1.0203Z" style="fill:#14103d"/><path d="M91.65359,120.00436,89.04,121.66905l-1.9282.3889a2.037,2.037,0,0,0-1.6269,1.821l-.0365.42141,10.69971-.0165-.29961-4.27581Z" style="fill:#14103d"/><path d="M96.19029,124.35365l-10.7839.0165-.001-.6823a.24389.24389,0,0,1,.2434-.24429l10.5401-.0161.0014.92619" style="fill:#14103d"/><polygon points="95.848 120.008 96.19 112.834 91.928 112.354 91.654 120.004 95.848 120.008" style="fill:#eb8175"/><path d="M104.30619,91.87245l-12.5802.573s-1.8091.0991-1.6876,4.3346.10971,21.278.10971,21.278l6.04219.20919,1.1567-17.852,12.5923-.15539a6.77551,6.77551,0,0,0,6.1741-3.9928,4.934,4.934,0,0,0,.3466-3.07671Z" style="fill:#231c61"/><path d="M92.368,89.33525c.0025,1.19391-.8068,1.37431-2.0005,1.3768-1.1939.00241-2.32039-.17419-2.3228-1.36809a2.16165,2.16165,0,0,1,4.3233-.00871Z" style="fill:#e1ad9d"/><path d="M93.88619,90.55536l-2.4982.00509a1.19,1.19,0,0,1-1.189-1.1843h0a1.18993,1.18993,0,0,1,1.1842-1.1889l2.4982-.00509a1.19038,1.19038,0,0,1,1.189,1.1842h0A1.19021,1.19021,0,0,1,93.88619,90.55536Z" style="fill:#e1ad9d"/><path d="M93.78979,90.80886l-.8332-4.08881,10.2709-1.1192,2.0548-11.9999c.207-1.09069,1.7862-2.4438,2.8769-2.2366l-.3144-.08929a2.44679,2.44679,0,0,1,1.8857,2.5649L107.731,88.19535a2.01031,2.01031,0,0,1-1.4992,1.57841Z" style="fill:#c8c6f2"/><path d="M114.30779,71.62866a2.18228,2.18228,0,0,1,.6176.14219l.1032.0404a5.06935,5.06935,0,0,1,3.0369,4.353L116.46,93.19035c-10.6423-.0922-12.1538-1.3179-12.1538-1.3179l.8458-17.417c.1295-1.6426.8829-3.18811,2.75411-3.3434h0Z" style="fill:#d8d7fd"/><path d="M102.58819,90.674c.0817,1.191-.7137,1.42479-1.9047,1.50659s-2.3268-.01959-2.4085-1.21069a2.16167,2.16167,0,0,1,4.3132-.2959Z" style="fill:#eb8175"/><path d="M104.184,91.79046l-2.4923.17109a1.1902,1.1902,0,0,1-1.2651-1.1025h0a1.19011,1.19011,0,0,1,1.1027-1.26519l2.4922-.171a1.19,1.19,0,0,1,1.265,1.1025h0A1.19015,1.19015,0,0,1,104.184,91.79046Z" style="fill:#eb8175"/><path d="M104.10459,92.04976l-1.103-4.02441,11.1927-1.7994-.6365-10.40819a2.6006,2.6006,0,0,1,2.44431-2.2068h0a2.44691,2.44691,0,0,1,2.052,2.4339l.80629,12.4704a2.01083,2.01083,0,0,1-1.3911,1.6748Z" style="fill:#d8d7fd"/><path d="M84.73849,78.22176,96.9511,79.37335a.85457.85457,0,0,1,.76869.752l1.2816,11.005a.85468.85468,0,0,1-.9292.9496l-12.4154-1.17061a.85463.85463,0,0,1-.7703-.76739l-1.0787-10.98581A.8546.8546,0,0,1,84.73849,78.22176Z" style="fill:#091218"/><path d="M84.03519,78.15556l12.2127,1.1515a.85438.85438,0,0,1,.7686.7519L98.298,91.06405a.85453.85453,0,0,1-.929.9496l-12.4155-1.17059a.855.855,0,0,1-.7703-.76741l-1.0787-10.98579A.85456.85456,0,0,1,84.03519,78.15556Z" style="fill:#1b2934"/><path d="M98.66249,91.20646l8.3447.78689a.46255.46255,0,0,1,.4172.50381h0a.46252.46252,0,0,1-.504.41709l-8.8482-.802Z" style="fill:#091218"/><path d="M91.03469,84.83165a1.33651,1.33651,0,1,1-1.2051-1.4561A1.33654,1.33654,0,0,1,91.03469,84.83165Z" style="fill:#fff"/><polygon points="113.169 78.218 113.444 86.043 103.002 88.025 112.204 85.151 113.169 78.218" style="fill:#c8c6f2"/><path d="M107.63029,70.59055l.698,1.873a1.83511,1.83511,0,0,0,1.59581,1.1901h0a1.83525,1.83525,0,0,0,1.81239-2.54961l-1.2246-2.87739Z" style="fill:#eb8175"/><path d="M108.25189,72.25886s3.43921-.6501,2.934-3.657c-.5053-3.00709-3.7399-.66069-3.7399-.66069l.3154,3.00149Z" style="fill:#e16c5f"/><path d="M102.94659,63.26116a5.39517,5.39517,0,1,0,7.1723-2.6025A5.39483,5.39483,0,0,0,102.94659,63.26116Z" style="fill:#eb8175"/><g style="clip-path:url(#clip-path-2)"><path d="M109.83439,66.60945s-.8495,4.32211,2.3273,4.4164c3.1767.09451,1.4479-8.1071,1.4479-8.1071l-5.0279-5.0593-7.693,1.89331.7636,4.9743s1.2231.649,7.8367-.44081Z" style="fill:#231c61"/><polygon points="106.695 63.228 109.222 66.924 111.401 64.517 106.695 63.228" style="fill:#231c61"/></g><path d="M108.98559,65.60656a1.52521,1.52521,0,1,0,2.0276-.7356A1.52523,1.52523,0,0,0,108.98559,65.60656Z" style="fill:#eb8175"/><path d="M101.89719,64.64556s-1.1663-4.2522,1.5911-6.8844a5.53161,5.53161,0,0,1,8.0091.3801,8.48157,8.48157,0,0,1,1.77971,5.3975Z" style="fill:#f5d100"/><path d="M102.48279,64.57466l-.0326-2.6547a1.24942,1.24942,0,0,1,1.1908-1.26371h0a1.24966,1.24966,0,0,1,1.3022,1.12351l.2658,2.649" style="fill:none;stroke:#f1ab00;stroke-miterlimit:10;stroke-width:0.280153px"/><line x1="113.2771" y1="63.53876" x2="100.89629" y2="64.72706" style="fill:none;stroke:#fff;stroke-linecap:round;stroke-linejoin:round;stroke-width:1.12061px"/><polygon points="225.996 206.993 228.772 209.682 225.608 211.384 222.898 208.729 225.996 206.993" style="fill:#eb8175"/><path d="M206.4611,186.90945l1.85458,8.2074a13.04849,13.04849,0,0,0,2.1116,4.6695l12.2082,10.96771,4.8285-3.9331-10.42388-11.0378-3.81852-14.55581Z" style="fill:#14103d"/><path d="M225.51558,211.30635l-1,3.18991-1.1426,1.58939a2.02693,2.02693,0,0,0,.0472,2.42921l.2587.33189,7.7893-7.2577-3.114-2.91429Z" style="fill:#14103d"/><polyline points="231.546 211.611 223.696 218.926 223.067 218.252 230.918 210.937 231.546 211.611" style="fill:#14103d"/><polygon points="199.302 211.986 198.261 215.462 194.686 214.504 195.732 211.09 199.302 211.986" style="fill:#eb8175"/><path d="M204.09548,177.75406l-10.01389,33.84939,6.31839,1.5777,5.6372-16.9692,6.9243-11.10239a15.58863,15.58863,0,0,0,.9898-1.55111,6.561,6.561,0,0,0,.79182-3.23419l-.02412-2.2017Z" style="fill:#231c61"/><path d="M194.893,214.16875l-3.1593,1.16711-1.9708.0679a2.04212,2.04212,0,0,0-1.90779,1.5336l-.10521.4106,10.5835,1.741.40589-4.2773Z" style="fill:#14103d"/><polyline points="198.364 219.165 187.697 217.41 187.848 216.494 198.514 218.249 198.364 219.165" style="fill:#14103d"/><polygon points="190.119 143.373 186.072 149.687 188.011 151.08 192.2 144.399 190.119 143.373" style="fill:#334fbe"/><path d="M184.86349,132.90866s1.8701,7.82669,11.346,10.9082a.747.747,0,0,1,.5201.60289,2.86885,2.86885,0,0,1-1.9741,3.4468.75669.75669,0,0,1-.5929-.0949c-1.4486-.907-8.5782-5.0748-15.4979-3.87249Z" style="fill:#4265d1"/><path d="M184.86349,132.90866s-1.7376,7.8073-6.1988,10.9905C178.66469,143.89916,179.2941,137.05355,184.86349,132.90866Z" style="fill:#334fbe"/><path d="M184.75289,149.27766a3.2089,3.2089,0,0,0,2.3261,3.48339,2.65489,2.65489,0,0,0,3.1328-2.06979,3.20893,3.20893,0,0,0-2.3258-3.48341A2.65549,2.65549,0,0,0,184.75289,149.27766Z" style="fill:#eb8175"/><polyline points="192.357 153.495 189.551 150.563 187.718 152.819 192.357 156.219" style="fill:#eb8175"/><path d="M191.91069,150.78475l-2.9658,4.4092,8.1094,7.42281a4.25469,4.25469,0,0,0,1.52429.147l10.7072-1.3878a3.05841,3.05841,0,0,0,2.9102-3.1999h0c-.07988-1.6872.2437-4.12921-1.4435-4.0493l-12.44029,2.55509Z" style="fill:#c8c6f2"/><path d="M215.9251,160.90216a6.14954,6.14954,0,0,0-2.75992-5.92631,3.95843,3.95843,0,0,0-2.4127-.84909,6.07015,6.07015,0,0,0-5.2707,4.21119c-1.5979,4.903-2.0548,19.39341-2.0548,19.39341l11.4784.3912Z" style="fill:#d8d7fd"/><polygon points="211.689 161.267 215.139 173.949 215.837 163.19 211.689 161.267" style="fill:#c8c6f2"/><path d="M225.75558,186.29275a3.20864,3.20864,0,0,0,.1778-4.18479,2.65445,2.65445,0,0,0-3.7504-.17791,3.20867,3.20867,0,0,0-.1784,4.18461A2.65552,2.65552,0,0,0,225.75558,186.29275Z" style="fill:#eb8175"/><polyline points="220.548 177.259 222.641 182.423 225.451 181.684 223.713 176.202" style="fill:#eb8175"/><path d="M220.68168,181.24346l5.74742-1.2638-3.898-13.3311a4.25421,4.25421,0,0,0-.68782-1.36841l-7.1555-8.90759c-.96668-1.3852-2.5975-1.1378-3.9826-.17111h0a3.05834,3.05834,0,0,0-.7576,4.25841l6.8911,8.2865Z" style="fill:#d8d7fd"/><path d="M208.06528,152.38286l.21782,2.0098a1.85558,1.85558,0,0,0,1.26808,1.56389h0a1.85608,1.85608,0,0,0,2.4115-2.04789l-.4838-3.12571Z" style="fill:#eb8175"/><path d="M208.25938,154.173s3.5449-.1159,3.7986-3.1893-3.5135-1.24391-3.5135-1.24391l-.4383,3.02071Z" style="fill:#e16c5f"/><path d="M205.29918,144.03126a5.45688,5.45688,0,1,0,7.6791-.76471A5.45677,5.45677,0,0,0,205.29918,144.03126Z" style="fill:#eb8175"/><g style="clip-path:url(#clip-path-3)"><path d="M211.21738,149.029s-1.909,4.0253,1.1815,4.909,3.4385-7.58681,3.4385-7.58681l-3.669-6.2117-8.0128-.05979-.4902,5.0663s1.0373.9409,7.7919,1.5196Z" style="fill:#231c61"/><polygon points="208.982 144.932 210.539 149.185 213.274 147.368 208.982 144.932" style="fill:#231c61"/></g><path d="M210.6351,147.83445a1.54262,1.54262,0,1,0,2.17078-.21619A1.54266,1.54266,0,0,0,210.6351,147.83445Z" style="fill:#eb8175"/><path d="M203.893,145.59525s-.2674-4.45149,3.0105-6.4815a5.59492,5.59492,0,0,1,7.8472,2.0465,8.57762,8.57762,0,0,1,.6357,5.713Z" style="fill:#f5d100"/><path d="M204.48728,145.64736l.5213-2.63421a1.26416,1.26416,0,0,1,1.4423-1.0023h0a1.264,1.264,0,0,1,1.0544,1.3835l-.2894,2.67731" style="fill:none;stroke:#f1ab00;stroke-miterlimit:10;stroke-width:0.283354px"/><line x1="215.38638" y1="146.87325" x2="202.88528" y2="145.46715" style="fill:none;stroke:#fff;stroke-linecap:round;stroke-linejoin:round;stroke-width:1.13341px"/><line x1="291.6861" y1="179.22656" x2="278.75188" y2="191.97745" style="fill:none;stroke:#3d5ac4;stroke-miterlimit:10;stroke-width:2.6489100000000003px"/><line x1="291.6861" y1="165.60055" x2="278.75188" y2="178.35146" style="fill:none;stroke:#3d5ac4;stroke-miterlimit:10;stroke-width:2.6489100000000003px"/><line x1="291.6861" y1="151.97455" x2="278.75188" y2="164.72565" style="fill:none;stroke:#3d5ac4;stroke-miterlimit:10;stroke-width:2.6489100000000003px"/><line x1="291.6861" y1="138.34875" x2="278.75188" y2="151.09966" style="fill:none;stroke:#3d5ac4;stroke-miterlimit:10;stroke-width:2.6489100000000003px"/><line x1="291.6861" y1="124.72275" x2="278.75188" y2="137.47366" style="fill:none;stroke:#3d5ac4;stroke-miterlimit:10;stroke-width:2.6489100000000003px"/><line x1="291.6861" y1="111.09686" x2="278.75188" y2="123.84786" style="fill:none;stroke:#3d5ac4;stroke-miterlimit:10;stroke-width:2.6489100000000003px"/><line x1="291.6861" y1="97.47095" x2="278.75188" y2="110.22195" style="fill:none;stroke:#3d5ac4;stroke-miterlimit:10;stroke-width:2.6489100000000003px"/><line x1="291.6861" y1="83.84505" x2="278.75188" y2="96.59595" style="fill:none;stroke:#3d5ac4;stroke-miterlimit:10;stroke-width:2.6489100000000003px"/><line x1="291.6861" y1="70.21906" x2="278.75188" y2="82.97015" style="fill:none;stroke:#3d5ac4;stroke-miterlimit:10;stroke-width:2.6489100000000003px"/><line x1="291.6861" y1="56.59325" x2="278.75188" y2="69.34415" style="fill:none;stroke:#3d5ac4;stroke-miterlimit:10;stroke-width:2.6489100000000003px"/><line x1="291.6861" y1="42.96726" x2="278.75188" y2="55.71816" style="fill:none;stroke:#3d5ac4;stroke-miterlimit:10;stroke-width:2.6489100000000003px"/><line x1="278.75188" y1="178.35146" x2="291.6861" y2="178.35146" style="fill:none;stroke:#3d5ac4;stroke-miterlimit:10;stroke-width:2.6489100000000003px"/><line x1="278.75188" y1="164.72565" x2="291.6861" y2="164.72565" style="fill:none;stroke:#3d5ac4;stroke-miterlimit:10;stroke-width:2.6489100000000003px"/><line x1="278.75188" y1="151.09966" x2="291.6861" y2="151.09966" style="fill:none;stroke:#3d5ac4;stroke-miterlimit:10;stroke-width:2.6489100000000003px"/><line x1="278.75188" y1="137.47366" x2="291.6861" y2="137.47366" style="fill:none;stroke:#3d5ac4;stroke-miterlimit:10;stroke-width:2.6489100000000003px"/><line x1="278.75188" y1="123.84786" x2="291.6861" y2="123.84786" style="fill:none;stroke:#3d5ac4;stroke-miterlimit:10;stroke-width:2.6489100000000003px"/><line x1="278.75188" y1="110.22195" x2="291.6861" y2="110.22195" style="fill:none;stroke:#3d5ac4;stroke-miterlimit:10;stroke-width:2.6489100000000003px"/><line x1="278.75188" y1="96.59595" x2="291.6861" y2="96.59595" style="fill:none;stroke:#3d5ac4;stroke-miterlimit:10;stroke-width:2.6489100000000003px"/><line x1="278.75188" y1="82.97015" x2="291.6861" y2="82.97015" style="fill:none;stroke:#3d5ac4;stroke-miterlimit:10;stroke-width:2.6489100000000003px"/><line x1="278.75188" y1="69.34415" x2="291.6861" y2="69.34415" style="fill:none;stroke:#3d5ac4;stroke-miterlimit:10;stroke-width:2.6489100000000003px"/><line x1="278.75188" y1="55.71816" x2="291.6861" y2="55.71816" style="fill:none;stroke:#3d5ac4;stroke-miterlimit:10;stroke-width:2.6489100000000003px"/><line x1="278.75188" y1="195.67046" x2="278.75188" y2="45.14646" style="fill:none;stroke:#5571e9;stroke-miterlimit:10;stroke-width:2.6489100000000003px"/><line x1="291.6861" y1="195.67046" x2="291.6861" y2="45.14646" style="fill:none;stroke:#5571e9;stroke-miterlimit:10;stroke-width:2.6489100000000003px"/><rect x="272.08428" y="191.97745" width="25.7575" height="26.7621" style="fill:#231c61"/><path d="M278.25828,19.65935h13.4635a4.3005,4.3005,0,0,1,4.3005,4.3005V40.846a4.3005,4.3005,0,0,1-4.3005,4.3005h-13.4634a4.3006,4.3006,0,0,1-4.3006-4.3006v-16.886A4.3005,4.3005,0,0,1,278.25828,19.65935Z" style="fill:#3d5ac4"/><path d="M275.96818,25.805h8.6658a3.2589,3.2589,0,0,1,3.2589,3.2589v5.4067a3.2589,3.2589,0,0,1-3.2589,3.2589h-8.6658a0,0,0,0,1,0,0V25.805A0,0,0,0,1,275.96818,25.805Z" style="fill:#2f4dab"/><line x1="193.41779" y1="46.53755" x2="203.76448" y2="76.59455" style="fill:none;stroke:#231c61;stroke-miterlimit:10;stroke-width:2.16238px"/><line x1="186.22069" y1="42.96726" x2="166.04369" y2="70.21906" style="fill:none;stroke:#231c61;stroke-miterlimit:10;stroke-width:2.16238px"/><path d="M166.44538,60.54981h34.32249a6.8381,6.8381,0,0,1,6.8381,6.8381v34.32253a6.83794,6.83794,0,0,1-6.83794,6.83794H166.44546a6.838,6.838,0,0,1-6.838-6.838V67.38771a6.8379,6.8379,0,0,1,6.8379-6.8379Z" transform="translate(227.97614 281.75796) rotate(-127.40528)" style="fill:#f5d100"/><path d="M169.56561,64.91319H197.648a5.59463,5.59463,0,0,1,5.59463,5.59463V98.59017a5.59481,5.59481,0,0,1-5.59481,5.59481H169.56564a5.5948,5.5948,0,0,1-5.5948-5.5948V70.508a5.59477,5.59477,0,0,1,5.59477-5.59477Z" transform="matrix(-0.60745, -0.79436, 0.79436, -0.60745, 227.97584, 281.758)" style="fill:none;stroke:#231c61;stroke-miterlimit:10;stroke-width:1.1137700000000001px"/><path d="M185.37619,94.723c-.5399,4.04839-6.6825,3.2294-6.1427-.819C179.778,89.82016,185.92059,90.63915,185.37619,94.723Zm2.6421-22.6141-2.4106,17.0134-5.1654-.6888c.7632-5.7239,1.3986-11.2868,2.1664-17.04571Z" style="fill:#231c61"/><circle cx="190.46586" cy="40.42115" r="8.64978" style="fill:#231c61"/><path d="M196.58229,40.42115a6.11635,6.11635,0,1,1-6.1164-6.11629A6.11639,6.11639,0,0,1,196.58229,40.42115Z" style="fill:#373482"/><line x1="224.38538" y1="1.32445" x2="224.38538" y2="19.65935" style="fill:none;stroke:#3d5ac4;stroke-miterlimit:10;stroke-width:2.6489100000000003px"/><line x1="207.94348" y1="1.32445" x2="207.94348" y2="19.65935" style="fill:none;stroke:#3d5ac4;stroke-miterlimit:10;stroke-width:2.6489100000000003px"/><line x1="240.77338" y1="1.32445" x2="240.77338" y2="19.65935" style="fill:none;stroke:#3d5ac4;stroke-miterlimit:10;stroke-width:2.6489100000000003px"/><line x1="258.98218" y1="1.32445" x2="258.98218" y2="19.65935" style="fill:none;stroke:#3d5ac4;stroke-miterlimit:10;stroke-width:2.6489100000000003px"/><line x1="275.96818" y1="1.32445" x2="275.96818" y2="19.65935" style="fill:none;stroke:#3d5ac4;stroke-miterlimit:10;stroke-width:2.6489100000000003px"/><line x1="293.57898" y1="1.32445" x2="293.57898" y2="19.65935" style="fill:none;stroke:#3d5ac4;stroke-miterlimit:10;stroke-width:2.6489100000000003px"/><line x1="310.87738" y1="1.32445" x2="310.87738" y2="19.65935" style="fill:none;stroke:#3d5ac4;stroke-miterlimit:10;stroke-width:2.6489100000000003px"/><line x1="207.08698" y1="19.65935" x2="224.38538" y2="1.32445" style="fill:none;stroke:#3d5ac4;stroke-miterlimit:10;stroke-width:2.6489100000000003px"/><line x1="224.38538" y1="19.65935" x2="241.68378" y2="1.32445" style="fill:none;stroke:#3d5ac4;stroke-miterlimit:10;stroke-width:2.6489100000000003px"/><line x1="241.68378" y1="19.65935" x2="258.98218" y2="1.32445" style="fill:none;stroke:#3d5ac4;stroke-miterlimit:10;stroke-width:2.6489100000000003px"/><line x1="258.98218" y1="19.65935" x2="276.28058" y2="1.32445" style="fill:none;stroke:#3d5ac4;stroke-miterlimit:10;stroke-width:2.6489100000000003px"/><line x1="276.28058" y1="19.65935" x2="293.57898" y2="1.32445" style="fill:none;stroke:#3d5ac4;stroke-miterlimit:10;stroke-width:2.6489100000000003px"/><line x1="293.57898" y1="19.65935" x2="310.87738" y2="1.32445" style="fill:none;stroke:#3d5ac4;stroke-miterlimit:10;stroke-width:2.6489100000000003px"/><polygon points="190.466 19.659 331.503 19.659 312.513 1.324 205.056 1.324 190.466 19.659" style="fill:none;stroke:#5571e9;stroke-linecap:round;stroke-linejoin:round;stroke-width:2.6489100000000003px"/><line x1="190.46589" y1="19.65935" x2="190.46589" y2="40.42115" style="fill:none;stroke:#5571e9;stroke-linecap:round;stroke-linejoin:round;stroke-width:2.6489100000000003px"/><path d="M115.90079,216.26226l9.8728-25.51561a1.4275,1.4275,0,0,1,2.66251,0l9.87269,25.51561Z" style="fill:#f5d100"/><g style="clip-path:url(#clip-path-4)"><rect x="118.18789" y="196.23255" width="17.5291" height="5.4156" style="fill:#fafafa"/><rect x="117.23049" y="206.46726" width="19.8258" height="5.4154" style="fill:#fafafa"/></g><rect x="114.09689" y="216.26226" width="26.1291" height="2.1502" style="fill:#e8c400"/><path d="M259.258,216.341l9.8728-25.51551a1.42742,1.42742,0,0,1,2.6624,0L281.666,216.341Z" style="fill:#f5d100"/><g style="clip-path:url(#clip-path-5)"><rect x="261.5451" y="196.31136" width="17.52909" height="5.4155" style="fill:#fafafa"/><rect x="260.58768" y="206.54596" width="19.8257" height="5.4154" style="fill:#fafafa"/></g><rect x="257.4541" y="216.34096" width="26.12909" height="2.1503" style="fill:#e8c400"/><circle cx="62.27929" cy="173.61488" r="20.50228" transform="translate(-118.61586 209.63961) rotate(-81.52896)" style="fill:#5571e9"/><line x1="62.27929" y1="166.30715" x2="62.27929" y2="218.41246" style="fill:none;stroke:#3d5ac4;stroke-linecap:round;stroke-linejoin:round;stroke-width:1.1365800000000001px"/><line x1="54.30669" y1="167.36885" x2="62.27929" y2="176.30945" style="fill:none;stroke:#3d5ac4;stroke-linecap:round;stroke-linejoin:round;stroke-width:1.1365800000000001px"/><path d="M69.35079,175.81726c-.57069.57069-7.0715,7.34039-7.0715,7.34039" style="fill:none;stroke:#3d5ac4;stroke-linecap:round;stroke-linejoin:round;stroke-width:1.1365800000000001px"/><line x1="0.56829" y1="218.91406" x2="344.46998" y2="218.91406" style="fill:none;stroke:#3d5ac4;stroke-linecap:round;stroke-linejoin:round;stroke-width:1.1365800000000001px"/></g></g></svg>